<svg xmlns="http://www.w3.org/2000/svg" viewBox="0 0 1200 300" style="background:#0d0d0d">
  <!-- Hintergrund -->
  <rect width="1200" height="300" fill="#0d0d0d"/>

  <!-- Text "What I Use" -->
  <text x="50%" y="52%" text-anchor="middle" font-family="Montserrat, sans-serif" font-size="70" font-weight="700" fill="#e10600">
    WHAT I USE
  </text>

  <!-- Untertitel -->
  <text x="50%" y="82%" text-anchor="middle" font-family="Montserrat, sans-serif" font-size="24" fill="#f1f1f1">
    by Takreem | inspired by Formula 1
  </text>

  <!-- Linie unter Text -->
  <line x1="150" y1="220" x2="1050" y2="220" stroke="#e10600" stroke-width="4" stroke-linecap="round"/>

  <!-- Kreis-Animation rechts -->
  <circle cx="1070" cy="220" r="8" fill="#e10600">
    <animate attributeName="r" values="7;9;7" dur="1.2s" repeatCount="indefinite"/>
  </circle>

  <!-- GitHub Logo rechts -->
  <g transform="translate(1120,180) scale(1.5)">
    <path fill="#f1f1f1" d="M12 0C5.37 0 0 5.37 0 12c0 5.3 3.438 9.8 8.205 11.387.6.113.82-.262.82-.582 0-.288-.01-1.05-.015-2.06-3.338.724-4.042-1.61-4.042-1.61-.546-1.387-1.333-1.756-1.333-1.756-1.09-.744.083-.728.083-.728 1.205.085 1.84 1.24 1.84 1.24 1.07 1.835 2.807 1.305 3.492.997.108-.774.418-1.305.76-1.605-2.665-.303-5.467-1.332-5.467-5.932 0-1.31.468-2.382 1.235-3.222-.124-.303-.535-1.523.117-3.176 0 0 1.008-.322 3.3 1.23a11.48 11.48 0 013.003-.404c1.02.005 2.047.138 3.003.404 2.29-1.552 3.296-1.23 3.296-1.23.654 1.653.243 2.873.12 3.176.77.84 1.232 1.912 1.232 3.222 0 4.61-2.807 5.625-5.478 5.922.43.37.823 1.1.823 2.222 0 1.606-.015 2.9-.015 3.293 0 .322.216.7.825.582C20.565 21.797 24 17.298 24 12c0-6.63-5.37-12-12-12z"/>
  </g>
</svg>
